<svg xmlns="http://www.w3.org/2000/svg" width="360" height="150" viewBox="0 0 360 150" role="img" aria-labelledby="title description"><title id="title">Most Used Languages</title><desc id="description">Top programming languages across igorwfaoro's public repositories</desc><rect width="360" height="150" rx="4" fill="#282a36"/><text x="20" y="27" fill="#f8f8f2" font-family="Arial, sans-serif" font-size="16" font-weight="600">Most Used Languages</text><rect x="20.00" y="44" width="266.31" height="8" fill="#3178c6"/><rect x="286.31" y="44" width="15.08" height="8" fill="#b07219"/><rect x="301.40" y="44" width="12.27" height="8" fill="#f1e05a"/><rect x="313.67" y="44" width="8.03" height="8" fill="#89e051"/><rect x="321.70" y="44" width="7.31" height="8" fill="#ffb86c"/><rect x="329.00" y="44" width="11.00" height="8" fill="#44475a"/><circle cx="25" cy="73" r="5" fill="#3178c6"/><text x="36" y="77" fill="#f8f8f2" font-family="Arial, sans-serif" font-size="12">TypeScript</text><text x="170" y="77" fill="#f8f8f2" font-family="Arial, sans-serif" font-size="12" text-anchor="end">83.2%</text><circle cx="195" cy="73" r="5" fill="#b07219"/><text x="206" y="77" fill="#f8f8f2" font-family="Arial, sans-serif" font-size="12">Java</text><text x="340" y="77" fill="#f8f8f2" font-family="Arial, sans-serif" font-size="12" text-anchor="end">4.7%</text><circle cx="25" cy="98" r="5" fill="#f1e05a"/><text x="36" y="102" fill="#f8f8f2" font-family="Arial, sans-serif" font-size="12">JavaScript</text><text x="170" y="102" fill="#f8f8f2" font-family="Arial, sans-serif" font-size="12" text-anchor="end">3.8%</text><circle cx="195" cy="98" r="5" fill="#89e051"/><text x="206" y="102" fill="#f8f8f2" font-family="Arial, sans-serif" font-size="12">Shell</text><text x="340" y="102" fill="#f8f8f2" font-family="Arial, sans-serif" font-size="12" text-anchor="end">2.5%</text><circle cx="25" cy="123" r="5" fill="#ffb86c"/><text x="36" y="127" fill="#f8f8f2" font-family="Arial, sans-serif" font-size="12">SCSS</text><text x="170" y="127" fill="#f8f8f2" font-family="Arial, sans-serif" font-size="12" text-anchor="end">2.3%</text></svg>
